# xmcd
#
# Track frame offsets: 
#        150
#        17558
#        38956
#        50626
#        63298
#        81599
#        95684
#        107014
#        130948
#        146439
#
# Disc length: 2170 seconds
#
# Revision: 0
# Processed by: cddbd v1.5.2PL0 Copyright (c) Steve Scherf et al.
# Submitted via: ExactAudioCopy v0.99pb3
#
DISCID=8908780a
DTITLE=David Allan Coe - The Ghost of Hank Williams [CD]
DYEAR=1997
DGENRE=Country
TTITLE0=Lost Highway [Hank Williams cover]
TTITLE1=Cold Cold Heart [Hank Williams cover]
TTITLE2=Mansion On the Hill [Hank Williams cover]
TTITLE3=My Son Calls Another Man Daddy [Hank Williams cover]
TTITLE4=Help Me Understand [Hank Williams cover]
TTITLE5=The Ghost of Hank Williams
TTITLE6=Take These Chains from My Heart [Hank Williams cover]
TTITLE7=I Dreamed about Mama Last Night [Hank Williams cover]
TTITLE8=Be Careful of Stones that You Throw [Hank Williams cover]
TTITLE9=No One Will Ever Know [Hank Williams cover]
EXTD=
EXTT0=
EXTT1=
EXTT2=
EXTT3=
EXTT4=
EXTT5=
EXTT6=
EXTT7=
EXTT8=
EXTT9=
PLAYORDER=
